<?xml version="1.0" encoding="utf-8"?>
<svg xmlns="http://www.w3.org/2000/svg" viewBox="0 0 24 24" width="480" height="480">
  <path d="M5.75 3 A 1.0001 1.0001 0 0 0 4.8867188 3.4960938L3.1367188 6.4960938L0.14257812 11.486328L1.8574219 12.513672L3 10.609375L3 19C3 20.093063 3.9069372 21 5 21L19 21C20.093063 21 21 20.093063 21 19L21 10.609375L22.142578 12.513672L23.857422 11.486328L20.876953 6.5214844 A 1.0001 1.0001 0 0 0 20.863281 6.4960938L19.113281 3.4960938 A 1.0001 1.0001 0 0 0 18.25 3L5.75 3 z M 6.3242188 5L17.675781 5L18.841797 7L5.1582031 7L6.3242188 5 z M 10 9L14 9C14.552 9 15 9.448 15 10C15 10.552 14.552 11 14 11L10 11C9.448 11 9 10.552 9 10C9 9.448 9.448 9 10 9 z" />
</svg>