<?xml version="1.0" encoding="utf-8"?>
<svg xmlns="http://www.w3.org/2000/svg" viewBox="0 0 128 128" width="512" height="512">
  <path d="M63.949219 10.050781C63.599219 10.050781 63.250391 10.099219 62.900391 10.199219L23 25C21.8 25.4 21 26.600781 21 27.800781L21 42.900391C21 73.000391 36.5 100.19961 62.5 115.59961C62.7 115.69961 62.8 115.70078 63 115.80078C63.1 115.80078 63.199219 115.90039 63.199219 115.90039C63.399219 116.00039 63.600781 116 63.800781 116L64 116L64.199219 116C64.399219 116 64.600781 116.00039 64.800781 115.90039C64.900781 115.90039 65 115.80078 65 115.80078C65.2 115.70078 65.3 115.69961 65.5 115.59961C68.9 113.59961 72.300391 111.30078 75.400391 108.80078C76.700391 107.80078 76.900391 105.89961 75.900391 104.59961C74.800391 103.19961 72.999219 102.99961 71.699219 104.09961C69.299219 105.99961 66.7 107.8 64 109.5C40.8 95 27 70.300391 27 42.900391L27 29.900391L64 16.199219L101 29.900391L101 42.900391C101 50.200391 99.999609 57.400781 98.099609 64.300781C97.699609 65.900781 98.599219 67.6 100.19922 68C101.79922 68.4 103.50039 67.500391 103.90039 65.900391C106.00039 58.400391 107.09961 50.700781 107.09961 42.800781L107.09961 27.800781C107.09961 26.500781 106.29961 25.4 105.09961 25L65 10.199219C64.65 10.099219 64.299219 10.050781 63.949219 10.050781 z M 67.253906 27.132812C65.53125 26.960547 64 28.262109 64 30.099609L64 92.300781C64 94.900781 67.1 96.3 69 94.5C83.6 81.5 92 63.000391 92 42.900391L92 38.300781C92 37.000781 91.2 35.9 90 35.5L68 27.300781C67.75 27.213281 67.5 27.157422 67.253906 27.132812 z M 95.300781 79C94.200781 79 93.199219 79.6 92.699219 80.5L84 95.5C83.5 96.4 83.5 97.6 84 98.5L92.699219 113.5C93.199219 114.4 94.200781 115 95.300781 115L112.59961 115C113.69961 115 114.69922 114.4 115.19922 113.5L123.90039 98.5C124.40039 97.6 124.40039 96.4 123.90039 95.5L115.30078 80.5C114.80078 79.6 113.79922 79 112.69922 79L95.300781 79 z M 104 88C109 88 113 92 113 97C113 102 109 106 104 106C99 106 95 102 95 97C95 92 99 88 104 88 z" fill="#5C5C5B" />
</svg>