<?xml version="1.0" encoding="utf-8"?>
<svg xmlns="http://www.w3.org/2000/svg" viewBox="0 0 50 50" width="500" height="500">
  <path d="M4 6L4 12C3.9375 12.308594 3 16.839844 3 19.5C3 20.878906 3.269531 22.195313 4 23.25L4 48L46 48L46 23.25C46.730469 22.195313 47 20.878906 47 19.5C47 16.867188 46.082031 12.464844 46 12.0625C46 12.042969 46 12.019531 46 12L46 6 Z M 6 8L44 8L44 11L39.1875 11C39.054688 10.972656 38.914063 10.972656 38.78125 11L32.21875 11C32.117188 10.972656 32.011719 10.960938 31.90625 10.96875C31.875 10.976563 31.84375 10.988281 31.8125 11L25.21875 11C25.117188 10.972656 25.011719 10.960938 24.90625 10.96875C24.875 10.976563 24.84375 10.988281 24.8125 11L18.21875 11C18.117188 10.972656 18.011719 10.960938 17.90625 10.96875C17.875 10.976563 17.84375 10.988281 17.8125 11L11.21875 11C11.117188 10.972656 11.011719 10.960938 10.90625 10.96875C10.875 10.976563 10.84375 10.988281 10.8125 11L6 11 Z M 5.875 13L10 13L10 21.875C9.359375 22.550781 8.496094 23 7.5 23C6.726563 23 6.238281 22.804688 5.875 22.4375C5.8125 22.316406 5.730469 22.210938 5.625 22.125C5.226563 21.550781 5 20.605469 5 19.5C5 17.527344 5.703125 13.917969 5.875 13 Z M 12 13L17 13L17 21.875C16.359375 22.550781 15.496094 23 14.5 23C13.503906 23 12.640625 22.550781 12 21.875 Z M 19 13L24 13L24 21.875C23.359375 22.550781 22.496094 23 21.5 23C20.503906 23 19.640625 22.550781 19 21.875 Z M 26 13L31 13L31 21.90625C30.363281 22.574219 29.492188 23 28.5 23C27.503906 23 26.640625 22.550781 26 21.875 Z M 33 13L38 13L38 21.90625C37.363281 22.574219 36.492188 23 35.5 23C34.507813 23 33.636719 22.574219 33 21.90625 Z M 40 13L44.125 13C44.296875 13.917969 45 17.527344 45 19.5C45 20.484375 44.820313 21.324219 44.5 21.90625C44.265625 22.042969 44.097656 22.269531 44.03125 22.53125C43.679688 22.839844 43.207031 23 42.5 23C41.507813 23 40.636719 22.574219 40 21.90625 Z M 32 23.53125C32.960938 24.371094 34.121094 25 35.5 25C36.878906 25 38.039063 24.371094 39 23.53125C39.960938 24.371094 41.121094 25 42.5 25C43.03125 25 43.542969 24.90625 44 24.75L44 46L41 46L41 28L30 28L30 46L6 46L6 24.75C6.457031 24.90625 6.96875 25 7.5 25C8.875 25 10.039063 24.398438 11 23.5625C11.960938 24.398438 13.125 25 14.5 25C15.875 25 17.039063 24.398438 18 23.5625C18.960938 24.398438 20.125 25 21.5 25C22.875 25 24.039063 24.398438 25 23.5625C25.960938 24.398438 27.125 25 28.5 25C29.878906 25 31.039063 24.371094 32 23.53125 Z M 9 28L9 43L27 43L27 28 Z M 11 30L25 30L25 41L11 41 Z M 32 30L39 30L39 46L32 46Z" />
</svg>